<svg id="Layer_1" data-name="Layer 1" xmlns="http://www.w3.org/2000/svg" viewBox="0 0 796.49 796.97"><defs><style>.cls-1,.cls-2{fill:#699;}.cls-2{opacity:0.88;}</style></defs><title>episode-4</title><path class="cls-1" d="M1776,7537.11v121.14a276,276,0,0,1,186.39,72l86.71-84.64C1977.74,7578.36,1882,7537.11,1776,7537.11Z" transform="translate(-1378.38 -7537.11)"/><path class="cls-1" d="M2049.39,7645.79l-86.81,84.74c56,50.78,91.14,123.47,91.14,205.47h121.14C2174.87,7821,2126.59,7718.51,2049.39,7645.79Z" transform="translate(-1378.38 -7537.11)"/><path class="cls-1" d="M1776,8212.94v121.14c117,0,221.36-50.11,294.28-129.87l-86.87-84.61C1932.57,8176.82,1859,8212.94,1776,8212.94Z" transform="translate(-1378.38 -7537.11)"/><path class="cls-1" d="M2053.72,7936a276.73,276.73,0,0,1-70,183.81l86.77,84.71A397.45,397.45,0,0,0,2174.87,7936H2053.72Z" transform="translate(-1378.38 -7537.11)"/><path class="cls-2" d="M1967,7924.11v121.14a276.3,276.3,0,0,0-185.77,72l-87-84.64A397.53,397.53,0,0,1,1967,7924.11Z" transform="translate(-1378.38 -7537.11)"/><path class="cls-1" d="M1503.86,7645.79l86.81,84.74c-56,50.78-91.14,123.47-91.14,205.47H1378.38C1378.38,7821,1426.65,7718.51,1503.86,7645.79Z" transform="translate(-1378.38 -7537.11)"/><path class="cls-1" d="M1776,8212.94v121.14c-116,0-220.74-50.11-293.66-129.87l86.56-84.61A276.88,276.88,0,0,0,1776,8212.94Z" transform="translate(-1378.38 -7537.11)"/><path class="cls-1" d="M1499.52,7936a276.73,276.73,0,0,0,70,183.81l-86.77,84.71A397.45,397.45,0,0,1,1378.38,7936h121.14Z" transform="translate(-1378.38 -7537.11)"/></svg>