<svg id="Layer_1" data-name="Layer 1" xmlns="http://www.w3.org/2000/svg" viewBox="0 0 1001.49 796.97"><defs><style>.cls-1,.cls-4{opacity:0.88;}.cls-2,.cls-3,.cls-4{fill:#699;}.cls-3{opacity:0.75;}</style></defs><title>episode-3alt</title><g class="cls-1"><path class="cls-2" d="M660,6323.11v121.14a276,276,0,0,1,186.39,72l86.71-84.64C861.74,6364.36,766,6323.11,660,6323.11Z" transform="translate(-57.38 -6323.11)"/><path class="cls-2" d="M933.39,6431.79l-86.81,84.74c56,50.78,91.14,123.47,91.14,205.47h121.14C1058.87,6607,1010.59,6504.51,933.39,6431.79Z" transform="translate(-57.38 -6323.11)"/><path class="cls-2" d="M660,6998.94v121.14c117,0,221.36-50.11,294.28-129.87l-86.87-84.61C816.57,6962.82,743,6998.94,660,6998.94Z" transform="translate(-57.38 -6323.11)"/><path class="cls-2" d="M937.72,6722a276.73,276.73,0,0,1-70,183.81l86.77,84.71A397.45,397.45,0,0,0,1058.87,6722H937.72Z" transform="translate(-57.38 -6323.11)"/></g><path class="cls-3" d="M796,6625.11v121.14a276.3,276.3,0,0,0-185.77,72l-87-84.64A397.53,397.53,0,0,1,796,6625.11Z" transform="translate(-57.38 -6323.11)"/><path class="cls-3" d="M182.86,6817.79l86.81,84.74c-56,50.78-91.14,123.47-91.14,205.47H57.38C57.38,6993,105.65,6890.51,182.86,6817.79Z" transform="translate(-57.38 -6323.11)"/><path class="cls-4" d="M660,6998.94v121.14c-116,0-220.74-50.11-293.66-129.87l86.56-84.61A276.88,276.88,0,0,0,660,6998.94Z" transform="translate(-57.38 -6323.11)"/><path class="cls-4" d="M382.52,6722a276.73,276.73,0,0,0,70,183.81l-86.77,84.71A397.45,397.45,0,0,1,261.38,6722H382.52Z" transform="translate(-57.38 -6323.11)"/></svg>