<svg id="Layer_1" data-name="Layer 1" xmlns="http://www.w3.org/2000/svg" viewBox="0 0 1044.29 1050.72"><defs><style>.cls-1,.cls-2{fill:#699;}.cls-1{opacity:0.25;}.cls-2{opacity:0.13;}</style></defs><title>episode-1</title><path class="cls-1" d="M1794,217.11V338.25a276.26,276.26,0,0,1,186.2,72L2067,325.58A397,397,0,0,0,1794,217.11Z" transform="translate(-1302.38 -78.79)"/><path class="cls-2" d="M1474,349.79l-86.81,84.74c56,50.78,91.14,123.47,91.14,205.47h121.14C1599.49,525,1551.21,422.51,1474,349.79Z" transform="translate(-1302.38 -78.79)"/><path class="cls-2" d="M1946,873.94V995.08c116.33,0,221.17-50.11,294.09-129.87l-86.77-84.61A276.73,276.73,0,0,1,1946,873.94Z" transform="translate(-1302.38 -78.79)"/><path class="cls-2" d="M2108.34,466a276.73,276.73,0,0,1-70,183.81l86.77,84.71A397.45,397.45,0,0,0,2229.49,466H2108.34Z" transform="translate(-1302.38 -78.79)"/><path class="cls-2" d="M1974,564.11V685.25a276.3,276.3,0,0,0-185.77,72l-87-84.64A397.53,397.53,0,0,1,1974,564.11Z" transform="translate(-1302.38 -78.79)"/><path class="cls-2" d="M2259.86,78.79l86.81,84.74c-56,50.78-91.14,123.47-91.14,205.47H2134.38C2134.38,254,2182.65,151.51,2259.86,78.79Z" transform="translate(-1302.38 -78.79)"/><path class="cls-2" d="M1897,980.94v121.14c-116,0-220.74-50.11-293.66-129.87l86.56-84.61A276.88,276.88,0,0,0,1897,980.94Z" transform="translate(-1302.38 -78.79)"/><path class="cls-2" d="M1423.52,861a276.73,276.73,0,0,0,70,183.81l-86.77,84.71A397.45,397.45,0,0,1,1302.38,861h121.14Z" transform="translate(-1302.38 -78.79)"/></svg>