<svg id="Layer_1" data-name="Layer 1" xmlns="http://www.w3.org/2000/svg" viewBox="0 0 2483.05 9739.18"><defs><style>.cls-1{fill:#03c;}.cls-10,.cls-12,.cls-2,.cls-3,.cls-4,.cls-5,.cls-7,.cls-9{fill:#699;}.cls-2{opacity:0.38;}.cls-3{opacity:0.25;}.cls-4{opacity:0.13;}.cls-5{opacity:0.5;}.cls-6,.cls-9{opacity:0.63;}.cls-10,.cls-8{opacity:0.75;}.cls-11,.cls-12{opacity:0.88;}.cls-13{font-size:48px;}.cls-13,.cls-14{fill:#fff;}.cls-13,.cls-14,.cls-16,.cls-21{font-family:Montserrat Light;}.cls-14{font-size:30px;}.cls-15{letter-spacing:1px;}.cls-16{font-size:35.87px;}.cls-16,.cls-19,.cls-20,.cls-21{fill:red;}.cls-17{letter-spacing:-2px;}.cls-18{fill:none;stroke:red;stroke-miterlimit:10;stroke-width:2px;}.cls-20{font-size:90px;font-family:Montserrat SemiBold;font-weight:700;}.cls-21{font-size:75px;}</style></defs><title>episode-2alt</title><rect class="cls-1" width="2397" height="1199.18"/><rect class="cls-1" x="3" y="1220" width="2397" height="1199.18"/><path class="cls-2" d="M659,1432.11v121.14a276,276,0,0,1,186.39,72l86.71-84.64C860.74,1473.36,765,1432.11,659,1432.11Z" transform="translate(0 -0.82)"/><path class="cls-2" d="M932.39,1541.79l-86.81,84.74c56,50.78,91.14,123.47,91.14,205.47h121.14C1057.87,1717,1009.59,1614.51,932.39,1541.79Z" transform="translate(0 -0.82)"/><path class="cls-3" d="M659,2107.94v121.14c117,0,221.36-50.11,294.28-129.87l-86.87-84.61C815.57,2071.82,742,2107.94,659,2107.94Z" transform="translate(0 -0.82)"/><path class="cls-3" d="M208.72,1529a276.73,276.73,0,0,1-70,183.81l86.77,84.71A397.45,397.45,0,0,0,329.87,1529H208.72Z" transform="translate(0 -0.82)"/><path class="cls-3" d="M1069,1274.11v121.14a276.3,276.3,0,0,0-185.77,72l-87-84.64A397.53,397.53,0,0,1,1069,1274.11Z" transform="translate(0 -0.82)"/><path class="cls-3" d="M190.86,2083.79l86.81,84.74c-56,50.78-91.14,123.47-91.14,205.47H65.38C65.38,2259,113.65,2156.51,190.86,2083.79Z" transform="translate(0 -0.82)"/><path class="cls-3" d="M668,1828.94v121.14c-116,0-220.74-50.11-293.66-129.87l86.56-84.61A276.88,276.88,0,0,0,668,1828.94Z" transform="translate(0 -0.82)"/><path class="cls-3" d="M572.52,1491a276.73,276.73,0,0,0,70,183.81l-86.77,84.71A397.45,397.45,0,0,1,451.38,1491H572.52Z" transform="translate(0 -0.82)"/><path class="cls-3" d="M1794,217.11V338.25a276.26,276.26,0,0,1,186.2,72L2067,325.58A397,397,0,0,0,1794,217.11Z" transform="translate(0 -0.82)"/><path class="cls-4" d="M1474,349.79l-86.81,84.74c56,50.78,91.14,123.47,91.14,205.47h121.14C1599.49,525,1551.21,422.51,1474,349.79Z" transform="translate(0 -0.82)"/><path class="cls-4" d="M1946,873.94V995.08c116.33,0,221.17-50.11,294.09-129.87l-86.77-84.61A276.73,276.73,0,0,1,1946,873.94Z" transform="translate(0 -0.82)"/><path class="cls-4" d="M2108.34,466a276.73,276.73,0,0,1-70,183.81l86.77,84.71A397.45,397.45,0,0,0,2229.49,466H2108.34Z" transform="translate(0 -0.82)"/><path class="cls-4" d="M1974,564.11V685.25a276.3,276.3,0,0,0-185.77,72l-87-84.64A397.53,397.53,0,0,1,1974,564.11Z" transform="translate(0 -0.82)"/><path class="cls-4" d="M2259.86,78.79l86.81,84.74c-56,50.78-91.14,123.47-91.14,205.47H2134.38C2134.38,254,2182.65,151.51,2259.86,78.79Z" transform="translate(0 -0.82)"/><path class="cls-4" d="M1897,980.94v121.14c-116,0-220.74-50.11-293.66-129.87l86.56-84.61A276.88,276.88,0,0,0,1897,980.94Z" transform="translate(0 -0.82)"/><path class="cls-4" d="M1423.52,861a276.73,276.73,0,0,0,70,183.81l-86.77,84.71A397.45,397.45,0,0,1,1302.38,861h121.14Z" transform="translate(0 -0.82)"/><rect class="cls-1" x="3" y="2439" width="2397" height="1199.18"/><path class="cls-5" d="M1778,2658.11v121.14a276,276,0,0,1,186.39,72l86.71-84.64C1979.74,2699.36,1884,2658.11,1778,2658.11Z" transform="translate(0 -0.82)"/><path class="cls-5" d="M2051.39,2766.79l-86.81,84.74c56,50.78,91.14,123.47,91.14,205.47h121.14C2176.87,2942,2128.59,2839.51,2051.39,2766.79Z" transform="translate(0 -0.82)"/><path class="cls-2" d="M2081,2615.94v121.14c117,0,221.36-50.11,294.28-129.87l-86.87-84.61C2237.57,2579.82,2164,2615.94,2081,2615.94Z" transform="translate(0 -0.82)"/><path class="cls-5" d="M2055.72,3058a276.73,276.73,0,0,1-70,183.81l86.77,84.71A397.45,397.45,0,0,0,2176.87,3058H2055.72Z" transform="translate(0 -0.82)"/><path class="cls-2" d="M1528,3401.11v121.14a276.3,276.3,0,0,0-185.77,72l-87-84.64A397.53,397.53,0,0,1,1528,3401.11Z" transform="translate(0 -0.82)"/><path class="cls-2" d="M1866.86,2883.79l86.81,84.74c-56,50.78-91.14,123.47-91.14,205.47H1741.38C1741.38,3059,1789.65,2956.51,1866.86,2883.79Z" transform="translate(0 -0.82)"/><path class="cls-2" d="M1935,3386.94v121.14c-116,0-220.74-50.11-293.66-129.87l86.56-84.61A276.88,276.88,0,0,0,1935,3386.94Z" transform="translate(0 -0.82)"/><path class="cls-2" d="M1553.52,2778a276.73,276.73,0,0,0,70,183.81l-86.77,84.71A397.45,397.45,0,0,1,1432.38,2778h121.14Z" transform="translate(0 -0.82)"/><rect class="cls-1" x="3" y="3660" width="2397" height="1199.18"/><g class="cls-6"><path class="cls-7" d="M657,3879.11v121.14a276,276,0,0,1,186.39,72l86.71-84.64C858.74,3920.36,763,3879.11,657,3879.11Z" transform="translate(0 -0.82)"/><path class="cls-7" d="M930.39,3987.79l-86.81,84.74c56,50.78,91.14,123.47,91.14,205.47h121.14C1055.87,4163,1007.59,4060.51,930.39,3987.79Z" transform="translate(0 -0.82)"/><path class="cls-7" d="M657,4554.94v121.14c117,0,221.36-50.11,294.28-129.87l-86.87-84.61C813.57,4518.82,740,4554.94,657,4554.94Z" transform="translate(0 -0.82)"/><path class="cls-7" d="M934.72,4278a276.73,276.73,0,0,1-70,183.81l86.77,84.71A397.45,397.45,0,0,0,1055.87,4278H934.72Z" transform="translate(0 -0.82)"/></g><path class="cls-5" d="M521,4431.11v121.14a276.3,276.3,0,0,0-185.77,72l-87-84.64A397.53,397.53,0,0,1,521,4431.11Z" transform="translate(0 -0.82)"/><path class="cls-5" d="M1075.2,3685.45l86.81,84.74c-56,50.78-91.14,123.47-91.14,205.47H949.72C949.72,3860.66,998,3758.17,1075.2,3685.45Z" transform="translate(0 -0.82)"/><path class="cls-5" d="M424,4217.94v121.14c-116,0-220.74-50.11-293.66-129.87l86.56-84.61A276.88,276.88,0,0,0,424,4217.94Z" transform="translate(0 -0.82)"/><path class="cls-5" d="M764.52,4097a276.73,276.73,0,0,0,70,183.81l-86.77,84.71A397.45,397.45,0,0,1,643.38,4097H764.52Z" transform="translate(0 -0.82)"/><rect class="cls-1" x="1" y="4879.64" width="2397" height="1199.18"/><g class="cls-8"><path class="cls-7" d="M1794,5107.11v121.14a276,276,0,0,1,186.39,72l86.71-84.64C1995.74,5148.36,1900,5107.11,1794,5107.11Z" transform="translate(0 -0.82)"/><path class="cls-7" d="M2067.39,5215.79l-86.81,84.74c56,50.78,91.14,123.47,91.14,205.47h121.14C2192.87,5391,2144.59,5288.51,2067.39,5215.79Z" transform="translate(0 -0.82)"/><path class="cls-7" d="M1794,5782.94v121.14c117,0,221.36-50.11,294.28-129.87l-86.87-84.61C1950.57,5746.82,1877,5782.94,1794,5782.94Z" transform="translate(0 -0.82)"/><path class="cls-7" d="M2071.72,5506a276.73,276.73,0,0,1-70,183.81l86.77,84.71A397.45,397.45,0,0,0,2192.87,5506H2071.72Z" transform="translate(0 -0.82)"/></g><path class="cls-9" d="M2002,5407.11v121.14a276.3,276.3,0,0,0-185.77,72l-87-84.64A397.53,397.53,0,0,1,2002,5407.11Z" transform="translate(0 -0.82)"/><path class="cls-9" d="M2289.86,5544.79l86.81,84.74c-56,50.78-91.14,123.47-91.14,205.47H2164.38C2164.38,5720,2212.65,5617.51,2289.86,5544.79Z" transform="translate(0 -0.82)"/><path class="cls-10" d="M1793.34,5782.94v121.14c-116,0-220.74-50.11-293.66-129.87l86.56-84.61A276.88,276.88,0,0,0,1793.34,5782.94Z" transform="translate(0 -0.82)"/><path class="cls-10" d="M1794,5782.94v121.14c-116,0-220.74-50.11-293.66-129.87l86.56-84.61A276.88,276.88,0,0,0,1794,5782.94Z" transform="translate(0 -0.82)"/><path class="cls-9" d="M2218.52,5069a276.73,276.73,0,0,0,70,183.81l-86.77,84.71A397.45,397.45,0,0,1,2097.38,5069h121.14Z" transform="translate(0 -0.82)"/><rect class="cls-1" x="1" y="6100" width="2397" height="1199.18"/><g class="cls-11"><path class="cls-7" d="M660,6323.11v121.14a276,276,0,0,1,186.39,72l86.71-84.64C861.74,6364.36,766,6323.11,660,6323.11Z" transform="translate(0 -0.82)"/><path class="cls-7" d="M933.39,6431.79l-86.81,84.74c56,50.78,91.14,123.47,91.14,205.47h121.14C1058.87,6607,1010.59,6504.51,933.39,6431.79Z" transform="translate(0 -0.82)"/><path class="cls-7" d="M660,6998.94v121.14c117,0,221.36-50.11,294.28-129.87l-86.87-84.61C816.57,6962.82,743,6998.94,660,6998.94Z" transform="translate(0 -0.82)"/><path class="cls-7" d="M937.72,6722a276.73,276.73,0,0,1-70,183.81l86.77,84.71A397.45,397.45,0,0,0,1058.87,6722H937.72Z" transform="translate(0 -0.82)"/></g><path class="cls-10" d="M796,6625.11v121.14a276.3,276.3,0,0,0-185.77,72l-87-84.64A397.53,397.53,0,0,1,796,6625.11Z" transform="translate(0 -0.82)"/><path class="cls-10" d="M182.86,6817.79l86.81,84.74c-56,50.78-91.14,123.47-91.14,205.47H57.38C57.38,6993,105.65,6890.51,182.86,6817.79Z" transform="translate(0 -0.82)"/><path class="cls-12" d="M660,6998.94v121.14c-116,0-220.74-50.11-293.66-129.87l86.56-84.61A276.88,276.88,0,0,0,660,6998.94Z" transform="translate(0 -0.82)"/><path class="cls-12" d="M382.52,6722a276.73,276.73,0,0,0,70,183.81l-86.77,84.71A397.45,397.45,0,0,1,261.38,6722H382.52Z" transform="translate(0 -0.82)"/><rect class="cls-1" x="1" y="7320" width="2397" height="1199.18"/><path class="cls-7" d="M1776,7537.11v121.14a276,276,0,0,1,186.39,72l86.71-84.64C1977.74,7578.36,1882,7537.11,1776,7537.11Z" transform="translate(0 -0.82)"/><path class="cls-7" d="M2049.39,7645.79l-86.81,84.74c56,50.78,91.14,123.47,91.14,205.47h121.14C2174.87,7821,2126.59,7718.51,2049.39,7645.79Z" transform="translate(0 -0.82)"/><path class="cls-7" d="M1776,8212.94v121.14c117,0,221.36-50.11,294.28-129.87l-86.87-84.61C1932.57,8176.82,1859,8212.94,1776,8212.94Z" transform="translate(0 -0.82)"/><path class="cls-7" d="M2053.72,7936a276.73,276.73,0,0,1-70,183.81l86.77,84.71A397.45,397.45,0,0,0,2174.87,7936H2053.72Z" transform="translate(0 -0.82)"/><path class="cls-12" d="M1967,7924.11v121.14a276.3,276.3,0,0,0-185.77,72l-87-84.64A397.53,397.53,0,0,1,1967,7924.11Z" transform="translate(0 -0.82)"/><path class="cls-7" d="M1503.86,7645.79l86.81,84.74c-56,50.78-91.14,123.47-91.14,205.47H1378.38C1378.38,7821,1426.65,7718.51,1503.86,7645.79Z" transform="translate(0 -0.82)"/><path class="cls-7" d="M1776,8212.94v121.14c-116,0-220.74-50.11-293.66-129.87l86.56-84.61A276.88,276.88,0,0,0,1776,8212.94Z" transform="translate(0 -0.82)"/><path class="cls-7" d="M1499.52,7936a276.73,276.73,0,0,0,70,183.81l-86.77,84.71A397.45,397.45,0,0,1,1378.38,7936h121.14Z" transform="translate(0 -0.82)"/><rect class="cls-1" x="1" y="8540" width="2397" height="1199.18"/><path class="cls-7" d="M665,8757.11v121.14a276,276,0,0,1,186.39,72l86.71-84.64C866.74,8798.36,771,8757.11,665,8757.11Z" transform="translate(0 -0.82)"/><path class="cls-7" d="M938.39,8865.79l-86.81,84.74c56,50.78,91.14,123.47,91.14,205.47h121.14C1063.87,9041,1015.59,8938.51,938.39,8865.79Z" transform="translate(0 -0.82)"/><path class="cls-7" d="M665,9432.94v121.14c117,0,221.36-50.11,294.28-129.87l-86.87-84.61C821.57,9396.82,748,9432.94,665,9432.94Z" transform="translate(0 -0.82)"/><path class="cls-7" d="M942.72,9156a276.73,276.73,0,0,1-70,183.81l86.77,84.71A397.45,397.45,0,0,0,1063.87,9156H942.72Z" transform="translate(0 -0.82)"/><path class="cls-7" d="M665,8757.11v121.14a276.3,276.3,0,0,0-185.77,72l-87-84.64A397.53,397.53,0,0,1,665,8757.11Z" transform="translate(0 -0.82)"/><path class="cls-7" d="M392.86,8865.79l86.81,84.74c-56,50.78-91.14,123.47-91.14,205.47H267.38C267.38,9041,315.65,8938.51,392.86,8865.79Z" transform="translate(0 -0.82)"/><path class="cls-7" d="M665,9432.94v121.14c-116,0-220.74-50.11-293.66-129.87l86.56-84.61A276.88,276.88,0,0,0,665,9432.94Z" transform="translate(0 -0.82)"/><path class="cls-7" d="M388.52,9156a276.73,276.73,0,0,0,70,183.81l-86.77,84.71A397.45,397.45,0,0,1,267.38,9156H388.52Z" transform="translate(0 -0.82)"/><text class="cls-13" transform="translate(1466.06 1504.5)">L<tspan x="22.94" y="0">o</tspan><tspan x="50.26" y="0">r</tspan><tspan x="66.43" y="0">em ipsum dolor sit amet</tspan></text><text class="cls-14" transform="translate(1432.06 1907.88)">L<tspan x="14.34" y="0">o</tspan><tspan x="31.41" y="0">r</tspan><tspan x="41.52" y="0">em ipsum dolor sit ame</tspan><tspan x="347.82" y="0">t</tspan><tspan x="358.26" y="0">, </tspan><tspan x="372.03" y="0">c</tspan><tspan x="385.88" y="0">onse</tspan><tspan x="448.31" y="0">c</tspan><tspan x="462.74" y="0">t</tspan><tspan x="473.09" y="0">etur adipiscing eli</tspan><tspan x="705.89" y="0">t</tspan><tspan x="716.33" y="0">. </tspan><tspan x="0" y="36">P</tspan><tspan x="16.08" y="36">r</tspan><tspan x="26.34" y="36">aese</tspan><tspan x="85.14" y="36">n</tspan><tspan x="102.27" y="36">t sed est ac </tspan><tspan x="254.01" y="36">f</tspan><tspan x="262.98" y="36">elis lobo</tspan><tspan class="cls-15" x="372.83" y="36">r</tspan><tspan x="383.96" y="36">tis molli</tspan><tspan x="487.22" y="36">s</tspan><tspan x="499.37" y="36">. </tspan><tspan x="0" y="72">P</tspan><tspan x="16.41" y="72">hasellus sollicitudin </tspan><tspan x="279.96" y="72">c</tspan><tspan x="293.82" y="72">o</tspan><tspan x="310.89" y="72">n</tspan><tspan x="327.75" y="72">v</tspan><tspan x="342.66" y="72">allis tu</tspan><tspan x="427.79" y="72">r</tspan><tspan x="438.32" y="72">pis quis i</tspan><tspan x="552.35" y="72">n</tspan><tspan x="569.48" y="72">t</tspan><tspan x="579.83" y="72">e</tspan><tspan x="595.46" y="72">r</tspan><tspan x="605.57" y="72">dum.</tspan></text><text class="cls-16" transform="translate(1633.4 1705.62)">S<tspan class="cls-17" x="17.69" y="0">T</tspan><tspan x="32.82" y="0">A</tspan><tspan x="54.78" y="0">R</tspan><tspan x="74.4" y="0">T LISTENING</tspan></text><rect class="cls-18" x="1608.47" y="1662.43" width="423.03" height="62.69"/><polygon class="cls-19" points="1997.3 1679.1 1997.3 1706.65 2011.07 1692.88 1997.3 1679.1"/><rect class="cls-18" x="1969.27" y="1662.43" width="62.18" height="62.18"/><text class="cls-13" transform="translate(249.98 2765.97)">L<tspan x="22.94" y="0">o</tspan><tspan x="50.26" y="0">r</tspan><tspan x="66.43" y="0">em ipsum dolor sit amet</tspan></text><text class="cls-14" transform="translate(202.07 3256.9)">L<tspan x="14.34" y="0">o</tspan><tspan x="31.41" y="0">r</tspan><tspan x="41.52" y="0">em ipsum dolor sit ame</tspan><tspan x="347.82" y="0">t</tspan><tspan x="358.26" y="0">, </tspan><tspan x="372.03" y="0">c</tspan><tspan x="385.88" y="0">onse</tspan><tspan x="448.31" y="0">c</tspan><tspan x="462.74" y="0">t</tspan><tspan x="473.09" y="0">etur adipiscing eli</tspan><tspan x="705.89" y="0">t</tspan><tspan x="716.33" y="0">. </tspan><tspan x="0" y="36">C</tspan><tspan x="17.91" y="36">r</tspan><tspan x="28.17" y="36">as eu est </tspan><tspan x="147.99" y="36">v</tspan><tspan x="162.9" y="36">a</tspan><tspan x="177.96" y="36">r</tspan><tspan x="188.49" y="36">ius libe</tspan><tspan x="281.28" y="36">r</tspan><tspan x="291.39" y="36">o efficitur elei</tspan><tspan x="469.34" y="36">f</tspan><tspan x="478.31" y="36">end maximus eget sapien. </tspan><tspan x="0" y="72">P</tspan><tspan x="16.08" y="72">r</tspan><tspan x="26.34" y="72">aese</tspan><tspan x="85.14" y="72">n</tspan><tspan x="102.27" y="72">t sed est ac </tspan><tspan x="254.01" y="72">f</tspan><tspan x="262.98" y="72">elis lobo</tspan><tspan class="cls-15" x="372.83" y="72">r</tspan><tspan x="383.96" y="72">tis molli</tspan><tspan x="487.22" y="72">s</tspan><tspan x="499.37" y="72">. </tspan><tspan x="0" y="108">P</tspan><tspan x="16.41" y="108">hasellus sollicitudin </tspan><tspan x="279.96" y="108">c</tspan><tspan x="293.82" y="108">o</tspan><tspan x="310.89" y="108">n</tspan><tspan x="327.75" y="108">v</tspan><tspan x="342.66" y="108">allis tu</tspan><tspan x="427.79" y="108">r</tspan><tspan x="438.32" y="108">pis quis i</tspan><tspan x="552.35" y="108">n</tspan><tspan x="569.48" y="108">t</tspan><tspan x="579.83" y="108">e</tspan><tspan x="595.46" y="108">r</tspan><tspan x="605.57" y="108">dum.</tspan></text><text class="cls-16" transform="translate(409.53 2954.62)">S<tspan class="cls-17" x="17.69" y="0">T</tspan><tspan x="32.82" y="0">A</tspan><tspan x="54.78" y="0">R</tspan><tspan x="74.4" y="0">T LISTENING</tspan></text><rect class="cls-18" x="384.6" y="2911.43" width="423.03" height="62.69"/><polygon class="cls-19" points="773.43 2928.1 773.43 2955.65 787.2 2941.88 773.43 2928.1"/><rect class="cls-18" x="745.4" y="2911.43" width="62.18" height="62.18"/><text class="cls-13" transform="translate(1411.89 4194.1)">L<tspan x="22.94" y="0">o</tspan><tspan x="50.26" y="0">r</tspan><tspan x="66.43" y="0">em ipsum dolor sit amet</tspan></text><text class="cls-14" transform="translate(1419.39 4336.46)">L<tspan x="14.34" y="0">o</tspan><tspan x="31.41" y="0">r</tspan><tspan x="41.52" y="0">em ipsum dolor sit ame</tspan><tspan x="347.82" y="0">t</tspan><tspan x="358.26" y="0">, </tspan><tspan x="372.03" y="0">c</tspan><tspan x="385.88" y="0">onse</tspan><tspan x="448.31" y="0">c</tspan><tspan x="462.74" y="0">t</tspan><tspan x="473.09" y="0">etur adipiscing eli</tspan><tspan x="705.89" y="0">t</tspan><tspan x="716.33" y="0">. </tspan><tspan x="0" y="36">C</tspan><tspan x="17.91" y="36">r</tspan><tspan x="28.17" y="36">as eu est </tspan><tspan x="147.99" y="36">v</tspan><tspan x="162.9" y="36">a</tspan><tspan x="177.96" y="36">r</tspan><tspan x="188.49" y="36">ius libe</tspan><tspan x="281.28" y="36">r</tspan><tspan x="291.39" y="36">o efficitur elei</tspan><tspan x="469.34" y="36">f</tspan><tspan x="478.31" y="36">end maximus eget sapien. </tspan><tspan x="0" y="72">P</tspan><tspan x="16.08" y="72">r</tspan><tspan x="26.34" y="72">aese</tspan><tspan x="85.14" y="72">n</tspan><tspan x="102.27" y="72">t sed est ac </tspan><tspan x="254.01" y="72">f</tspan><tspan x="262.98" y="72">elis lobo</tspan><tspan class="cls-15" x="372.83" y="72">r</tspan><tspan x="383.96" y="72">tis molli</tspan><tspan x="487.22" y="72">s</tspan><tspan x="499.37" y="72">. </tspan><tspan x="0" y="108">P</tspan><tspan x="16.41" y="108">hasellus sollicitudin </tspan><tspan x="279.96" y="108">c</tspan><tspan x="293.82" y="108">o</tspan><tspan x="310.89" y="108">n</tspan><tspan x="327.75" y="108">v</tspan><tspan x="342.66" y="108">allis tu</tspan><tspan x="427.79" y="108">r</tspan><tspan x="438.32" y="108">pis quis i</tspan><tspan x="552.35" y="108">n</tspan><tspan x="569.48" y="108">t</tspan><tspan x="579.83" y="108">e</tspan><tspan x="595.46" y="108">r</tspan><tspan x="605.57" y="108">dum.</tspan></text><text class="cls-16" transform="translate(1648.43 4261.88)">S<tspan class="cls-17" x="17.69" y="0">T</tspan><tspan x="32.82" y="0">A</tspan><tspan x="54.78" y="0">R</tspan><tspan x="74.4" y="0">T LISTENING</tspan></text><rect class="cls-18" x="1623.5" y="4218.7" width="423.03" height="62.69"/><polygon class="cls-19" points="2012.32 4235.37 2012.32 4262.92 2026.09 4249.14 2012.32 4235.37"/><rect class="cls-18" x="1984.29" y="4218.7" width="62.18" height="62.18"/><text class="cls-13" transform="translate(138.56 5434.53)">L<tspan x="22.94" y="0">o</tspan><tspan x="50.26" y="0">r</tspan><tspan x="66.43" y="0">em ipsum dolor sit amet</tspan></text><text class="cls-14" transform="translate(146.06 5576.88)">L<tspan x="14.34" y="0">o</tspan><tspan x="31.41" y="0">r</tspan><tspan x="41.52" y="0">em ipsum dolor sit ame</tspan><tspan x="347.82" y="0">t</tspan><tspan x="358.26" y="0">, </tspan><tspan x="372.03" y="0">c</tspan><tspan x="385.88" y="0">onse</tspan><tspan x="448.31" y="0">c</tspan><tspan x="462.74" y="0">t</tspan><tspan x="473.09" y="0">etur adipiscing eli</tspan><tspan x="705.89" y="0">t</tspan><tspan x="716.33" y="0">. </tspan><tspan x="0" y="36">C</tspan><tspan x="17.91" y="36">r</tspan><tspan x="28.17" y="36">as eu est </tspan><tspan x="147.99" y="36">v</tspan><tspan x="162.9" y="36">a</tspan><tspan x="177.96" y="36">r</tspan><tspan x="188.49" y="36">ius libe</tspan><tspan x="281.28" y="36">r</tspan><tspan x="291.39" y="36">o efficitur elei</tspan><tspan x="469.34" y="36">f</tspan><tspan x="478.31" y="36">end maximus eget sapien. </tspan><tspan x="0" y="72">P</tspan><tspan x="16.08" y="72">r</tspan><tspan x="26.34" y="72">aese</tspan><tspan x="85.14" y="72">n</tspan><tspan x="102.27" y="72">t sed est ac </tspan><tspan x="254.01" y="72">f</tspan><tspan x="262.98" y="72">elis lobo</tspan><tspan class="cls-15" x="372.83" y="72">r</tspan><tspan x="383.96" y="72">tis molli</tspan><tspan x="487.22" y="72">s</tspan><tspan x="499.37" y="72">. </tspan><tspan x="0" y="108">P</tspan><tspan x="16.41" y="108">hasellus sollicitudin </tspan><tspan x="279.96" y="108">c</tspan><tspan x="293.82" y="108">o</tspan><tspan x="310.89" y="108">n</tspan><tspan x="327.75" y="108">v</tspan><tspan x="342.66" y="108">allis tu</tspan><tspan x="427.79" y="108">r</tspan><tspan x="438.32" y="108">pis quis i</tspan><tspan x="552.35" y="108">n</tspan><tspan x="569.48" y="108">t</tspan><tspan x="579.83" y="108">e</tspan><tspan x="595.46" y="108">r</tspan><tspan x="605.57" y="108">dum.</tspan></text><text class="cls-16" transform="translate(375.1 5502.31)">S<tspan class="cls-17" x="17.69" y="0">T</tspan><tspan x="32.82" y="0">A</tspan><tspan x="54.78" y="0">R</tspan><tspan x="74.4" y="0">T LISTENING</tspan></text><rect class="cls-18" x="350.18" y="5459.13" width="423.03" height="62.69"/><polygon class="cls-19" points="739 5475.8 739 5503.34 752.77 5489.57 739 5475.8"/><rect class="cls-18" x="710.97" y="5459.13" width="62.18" height="62.18"/><text class="cls-13" transform="translate(1435.56 6626.53)">L<tspan x="22.94" y="0">o</tspan><tspan x="50.26" y="0">r</tspan><tspan x="66.43" y="0">em ipsum dolor sit amet</tspan></text><text class="cls-14" transform="translate(1443.06 6768.88)">L<tspan x="14.34" y="0">o</tspan><tspan x="31.41" y="0">r</tspan><tspan x="41.52" y="0">em ipsum dolor sit ame</tspan><tspan x="347.82" y="0">t</tspan><tspan x="358.26" y="0">, </tspan><tspan x="372.03" y="0">c</tspan><tspan x="385.88" y="0">onse</tspan><tspan x="448.31" y="0">c</tspan><tspan x="462.74" y="0">t</tspan><tspan x="473.09" y="0">etur adipiscing eli</tspan><tspan x="705.89" y="0">t</tspan><tspan x="716.33" y="0">. </tspan><tspan x="0" y="36">C</tspan><tspan x="17.91" y="36">r</tspan><tspan x="28.17" y="36">as eu est </tspan><tspan x="147.99" y="36">v</tspan><tspan x="162.9" y="36">a</tspan><tspan x="177.96" y="36">r</tspan><tspan x="188.49" y="36">ius libe</tspan><tspan x="281.28" y="36">r</tspan><tspan x="291.39" y="36">o efficitur elei</tspan><tspan x="469.34" y="36">f</tspan><tspan x="478.31" y="36">end maximus eget sapien. </tspan><tspan x="0" y="72">P</tspan><tspan x="16.08" y="72">r</tspan><tspan x="26.34" y="72">aese</tspan><tspan x="85.14" y="72">n</tspan><tspan x="102.27" y="72">t sed est ac </tspan><tspan x="254.01" y="72">f</tspan><tspan x="262.98" y="72">elis lobo</tspan><tspan class="cls-15" x="372.83" y="72">r</tspan><tspan x="383.96" y="72">tis molli</tspan><tspan x="487.22" y="72">s</tspan><tspan x="499.37" y="72">. </tspan><tspan x="0" y="108">P</tspan><tspan x="16.41" y="108">hasellus sollicitudin </tspan><tspan x="279.96" y="108">c</tspan><tspan x="293.82" y="108">o</tspan><tspan x="310.89" y="108">n</tspan><tspan x="327.75" y="108">v</tspan><tspan x="342.66" y="108">allis tu</tspan><tspan x="427.79" y="108">r</tspan><tspan x="438.32" y="108">pis quis i</tspan><tspan x="552.35" y="108">n</tspan><tspan x="569.48" y="108">t</tspan><tspan x="579.83" y="108">e</tspan><tspan x="595.46" y="108">r</tspan><tspan x="605.57" y="108">dum.</tspan></text><text class="cls-16" transform="translate(1672.1 6694.31)">S<tspan class="cls-17" x="17.69" y="0">T</tspan><tspan x="32.82" y="0">A</tspan><tspan x="54.78" y="0">R</tspan><tspan x="74.4" y="0">T LISTENING</tspan></text><rect class="cls-18" x="1647.18" y="6651.13" width="423.03" height="62.69"/><polygon class="cls-19" points="2036 6667.8 2036 6695.34 2049.77 6681.57 2036 6667.8"/><rect class="cls-18" x="2007.97" y="6651.13" width="62.18" height="62.18"/><text class="cls-13" transform="translate(57.56 7943.53)">L<tspan x="22.94" y="0">o</tspan><tspan x="50.26" y="0">r</tspan><tspan x="66.43" y="0">em ipsum dolor sit amet</tspan></text><text class="cls-14" transform="translate(65.06 8085.88)">L<tspan x="14.34" y="0">o</tspan><tspan x="31.41" y="0">r</tspan><tspan x="41.52" y="0">em ipsum dolor sit ame</tspan><tspan x="347.82" y="0">t</tspan><tspan x="358.26" y="0">, </tspan><tspan x="372.03" y="0">c</tspan><tspan x="385.88" y="0">onse</tspan><tspan x="448.31" y="0">c</tspan><tspan x="462.74" y="0">t</tspan><tspan x="473.09" y="0">etur adipiscing eli</tspan><tspan x="705.89" y="0">t</tspan><tspan x="716.33" y="0">. </tspan><tspan x="0" y="36">C</tspan><tspan x="17.91" y="36">r</tspan><tspan x="28.17" y="36">as eu est </tspan><tspan x="147.99" y="36">v</tspan><tspan x="162.9" y="36">a</tspan><tspan x="177.96" y="36">r</tspan><tspan x="188.49" y="36">ius libe</tspan><tspan x="281.28" y="36">r</tspan><tspan x="291.39" y="36">o efficitur elei</tspan><tspan x="469.34" y="36">f</tspan><tspan x="478.31" y="36">end maximus eget sapien. </tspan><tspan x="0" y="72">P</tspan><tspan x="16.08" y="72">r</tspan><tspan x="26.34" y="72">aese</tspan><tspan x="85.14" y="72">n</tspan><tspan x="102.27" y="72">t sed est ac </tspan><tspan x="254.01" y="72">f</tspan><tspan x="262.98" y="72">elis lobo</tspan><tspan class="cls-15" x="372.83" y="72">r</tspan><tspan x="383.96" y="72">tis molli</tspan><tspan x="487.22" y="72">s</tspan><tspan x="499.37" y="72">. </tspan><tspan x="0" y="108">P</tspan><tspan x="16.41" y="108">hasellus sollicitudin </tspan><tspan x="279.96" y="108">c</tspan><tspan x="293.82" y="108">o</tspan><tspan x="310.89" y="108">n</tspan><tspan x="327.75" y="108">v</tspan><tspan x="342.66" y="108">allis tu</tspan><tspan x="427.79" y="108">r</tspan><tspan x="438.32" y="108">pis quis i</tspan><tspan x="552.35" y="108">n</tspan><tspan x="569.48" y="108">t</tspan><tspan x="579.83" y="108">e</tspan><tspan x="595.46" y="108">r</tspan><tspan x="605.57" y="108">dum.</tspan></text><text class="cls-16" transform="translate(294.1 8011.31)">S<tspan class="cls-17" x="17.69" y="0">T</tspan><tspan x="32.82" y="0">A</tspan><tspan x="54.78" y="0">R</tspan><tspan x="74.4" y="0">T LISTENING</tspan></text><rect class="cls-18" x="269.18" y="7968.13" width="423.03" height="62.69"/><polygon class="cls-19" points="658 7984.8 658 8012.34 671.77 7998.57 658 7984.8"/><rect class="cls-18" x="629.97" y="7968.13" width="62.18" height="62.18"/><text class="cls-13" transform="translate(1458.56 9069.53)">L<tspan x="22.94" y="0">o</tspan><tspan x="50.26" y="0">r</tspan><tspan x="66.43" y="0">em ipsum dolor sit amet</tspan></text><text class="cls-14" transform="translate(1466.06 9211.88)">L<tspan x="14.34" y="0">o</tspan><tspan x="31.41" y="0">r</tspan><tspan x="41.52" y="0">em ipsum dolor sit ame</tspan><tspan x="347.82" y="0">t</tspan><tspan x="358.26" y="0">, </tspan><tspan x="372.03" y="0">c</tspan><tspan x="385.88" y="0">onse</tspan><tspan x="448.31" y="0">c</tspan><tspan x="462.74" y="0">t</tspan><tspan x="473.09" y="0">etur adipiscing eli</tspan><tspan x="705.89" y="0">t</tspan><tspan x="716.33" y="0">. </tspan><tspan x="0" y="36">C</tspan><tspan x="17.91" y="36">r</tspan><tspan x="28.17" y="36">as eu est </tspan><tspan x="147.99" y="36">v</tspan><tspan x="162.9" y="36">a</tspan><tspan x="177.96" y="36">r</tspan><tspan x="188.49" y="36">ius libe</tspan><tspan x="281.28" y="36">r</tspan><tspan x="291.39" y="36">o efficitur elei</tspan><tspan x="469.34" y="36">f</tspan><tspan x="478.31" y="36">end maximus eget sapien. </tspan><tspan x="0" y="72">P</tspan><tspan x="16.08" y="72">r</tspan><tspan x="26.34" y="72">aese</tspan><tspan x="85.14" y="72">n</tspan><tspan x="102.27" y="72">t sed est ac </tspan><tspan x="254.01" y="72">f</tspan><tspan x="262.98" y="72">elis lobo</tspan><tspan class="cls-15" x="372.83" y="72">r</tspan><tspan x="383.96" y="72">tis molli</tspan><tspan x="487.22" y="72">s</tspan><tspan x="499.37" y="72">. </tspan><tspan x="0" y="108">P</tspan><tspan x="16.41" y="108">hasellus sollicitudin </tspan><tspan x="279.96" y="108">c</tspan><tspan x="293.82" y="108">o</tspan><tspan x="310.89" y="108">n</tspan><tspan x="327.75" y="108">v</tspan><tspan x="342.66" y="108">allis tu</tspan><tspan x="427.79" y="108">r</tspan><tspan x="438.32" y="108">pis quis i</tspan><tspan x="552.35" y="108">n</tspan><tspan x="569.48" y="108">t</tspan><tspan x="579.83" y="108">e</tspan><tspan x="595.46" y="108">r</tspan><tspan x="605.57" y="108">dum.</tspan></text><text class="cls-16" transform="translate(1695.1 9137.31)">S<tspan class="cls-17" x="17.69" y="0">T</tspan><tspan x="32.82" y="0">A</tspan><tspan x="54.78" y="0">R</tspan><tspan x="74.4" y="0">T LISTENING</tspan></text><rect class="cls-18" x="1670.18" y="9094.13" width="423.03" height="62.69"/><polygon class="cls-19" points="2059 9110.8 2059 9138.34 2072.77 9124.57 2059 9110.8"/><rect class="cls-18" x="2030.97" y="9094.13" width="62.18" height="62.18"/><text class="cls-20" transform="translate(1396.6 206.99)">e<tspan class="cls-17" x="45.09" y="0">p</tspan><tspan x="94.14" y="0">. 1</tspan></text><text class="cls-21" transform="translate(2060.01 1047.86)">p<tspan x="42.67" y="0">t</tspan><tspan x="67.27" y="0">. i</tspan></text><text class="cls-20" transform="translate(256 1431.13)">e<tspan class="cls-17" x="45.09" y="0">p</tspan><tspan x="94.14" y="0">. 1</tspan></text><text class="cls-21" transform="translate(911.05 2263.99)">p<tspan x="42.67" y="0">t</tspan><tspan x="67.27" y="0">. ii</tspan></text><text class="cls-20" transform="translate(1391.6 2657.36)">e<tspan class="cls-17" x="45.09" y="0">p</tspan><tspan x="94.14" y="0">. 2</tspan></text><text class="cls-21" transform="translate(2059.2 3507.51)">p<tspan x="42.67" y="0">t</tspan><tspan x="67.27" y="0">. i</tspan></text><text class="cls-20" transform="translate(249.98 3869.99)">e<tspan class="cls-17" x="45.09" y="0">p</tspan><tspan x="94.14" y="0">. 2</tspan></text><text class="cls-21" transform="translate(913.1 4713.38)">p<tspan x="42.67" y="0">t</tspan><tspan x="67.27" y="0">. ii</tspan></text><text class="cls-20" transform="translate(1397.17 5106.36)">e<tspan class="cls-17" x="45.09" y="0">p</tspan><tspan x="94.14" y="0">. 3</tspan></text><text class="cls-21" transform="translate(2056 5941.85)">p<tspan x="42.67" y="0">t</tspan><tspan x="67.27" y="0">. i</tspan></text><text class="cls-20" transform="translate(257.17 6315.99)">e<tspan class="cls-17" x="45.09" y="0">p</tspan><tspan x="94.14" y="0">. 3</tspan></text><text class="cls-21" transform="translate(914.1 7160.23)">p<tspan x="42.67" y="0">t</tspan><tspan x="67.27" y="0">. ii</tspan></text></svg>