<svg id="Layer_1" data-name="Layer 1" xmlns="http://www.w3.org/2000/svg" viewBox="0 0 1120.07 1071.62"><defs><style>.cls-1,.cls-2{fill:#699;}.cls-1{opacity:0.5;}.cls-2{opacity:0.38;}</style></defs><title>episode-2</title><path class="cls-1" d="M1778,2658.11v121.14a276,276,0,0,1,186.39,72l86.71-84.64C1979.74,2699.36,1884,2658.11,1778,2658.11Z" transform="translate(-1255.21 -2522.6)"/><path class="cls-1" d="M2051.39,2766.79l-86.81,84.74c56,50.78,91.14,123.47,91.14,205.47h121.14C2176.87,2942,2128.59,2839.51,2051.39,2766.79Z" transform="translate(-1255.21 -2522.6)"/><path class="cls-2" d="M2081,2615.94v121.14c117,0,221.36-50.11,294.28-129.87l-86.87-84.61C2237.57,2579.82,2164,2615.94,2081,2615.94Z" transform="translate(-1255.21 -2522.6)"/><path class="cls-1" d="M2055.72,3058a276.73,276.73,0,0,1-70,183.81l86.77,84.71A397.45,397.45,0,0,0,2176.87,3058H2055.72Z" transform="translate(-1255.21 -2522.6)"/><path class="cls-2" d="M1528,3401.11v121.14a276.3,276.3,0,0,0-185.77,72l-87-84.64A397.53,397.53,0,0,1,1528,3401.11Z" transform="translate(-1255.21 -2522.6)"/><path class="cls-2" d="M1866.86,2883.79l86.81,84.74c-56,50.78-91.14,123.47-91.14,205.47H1741.38C1741.38,3059,1789.65,2956.51,1866.86,2883.79Z" transform="translate(-1255.21 -2522.6)"/><path class="cls-2" d="M1935,3386.94v121.14c-116,0-220.74-50.11-293.66-129.87l86.56-84.61A276.88,276.88,0,0,0,1935,3386.94Z" transform="translate(-1255.21 -2522.6)"/><path class="cls-2" d="M1553.52,2778a276.73,276.73,0,0,0,70,183.81l-86.77,84.71A397.45,397.45,0,0,1,1432.38,2778h121.14Z" transform="translate(-1255.21 -2522.6)"/></svg>