<svg id="Layer_1" data-name="Layer 1" xmlns="http://www.w3.org/2000/svg" viewBox="0 0 1003.62 1099.89"><defs><style>.cls-1,.cls-2{fill:#699;}.cls-1{opacity:0.38;}.cls-2{opacity:0.25;}</style></defs><title>episode-1alt</title><path class="cls-1" d="M659,1432.11v121.14a276,276,0,0,1,186.39,72l86.71-84.64C860.74,1473.36,765,1432.11,659,1432.11Z" transform="translate(-65.38 -1274.11)"/><path class="cls-2" d="M659,2107.94v121.14c117,0,221.36-50.11,294.28-129.87l-86.87-84.61C815.57,2071.82,742,2107.94,659,2107.94Z" transform="translate(-65.38 -1274.11)"/><path class="cls-2" d="M208.72,1529a276.73,276.73,0,0,1-70,183.81l86.77,84.71A397.45,397.45,0,0,0,329.87,1529H208.72Z" transform="translate(-65.38 -1274.11)"/><path class="cls-2" d="M1069,1274.11v121.14a276.3,276.3,0,0,0-185.77,72l-87-84.64A397.53,397.53,0,0,1,1069,1274.11Z" transform="translate(-65.38 -1274.11)"/><path class="cls-2" d="M190.86,2083.79l86.81,84.74c-56,50.78-91.14,123.47-91.14,205.47H65.38C65.38,2259,113.65,2156.51,190.86,2083.79Z" transform="translate(-65.38 -1274.11)"/><path class="cls-2" d="M668,1828.94v121.14c-116,0-220.74-50.11-293.66-129.87l86.56-84.61A276.88,276.88,0,0,0,668,1828.94Z" transform="translate(-65.38 -1274.11)"/><path class="cls-2" d="M572.52,1491a276.73,276.73,0,0,0,70,183.81l-86.77,84.71A397.45,397.45,0,0,1,451.38,1491H572.52Z" transform="translate(-65.38 -1274.11)"/></svg>