<svg xmlns="http://www.w3.org/2000/svg" viewBox="0 0 108.32 108.32"><defs><style>.cls-1{fill:#f2d657;}.cls-2{fill:#231f20;}.cls-3{fill:none;stroke:#231f20;stroke-linecap:round;stroke-linejoin:round;stroke-width:4.83px;}.cls-4{fill:#33a8cc;}</style></defs><title>Asset 4</title><g id="Layer_2" data-name="Layer 2"><g id="emojis"><circle class="cls-1" cx="54.16" cy="54.16" r="54.16"/></g><g id="faces"><path class="cls-2" d="M69.33,81.9a63.64,63.64,0,0,1-13.61,1.37,50.44,50.44,0,0,1-12.37-1.34s-4.78-25.23,12-26.75S69.33,81.9,69.33,81.9Z"/><polyline class="cls-3" points="75.19 36.24 67.34 43.05 74.91 49.31"/><polyline class="cls-3" points="32.51 49.96 40.35 43.16 32.79 36.9"/><path class="cls-4" d="M89.92,64.71A8.71,8.71,0,0,0,89,56.18a10.39,10.39,0,0,0-4.45-3.8c-3,1.71-2.8,8-2.48,10.12.19,1.29.65,3.41,2,4.11A4.8,4.8,0,0,0,89.92,64.71Z"/><path class="cls-4" d="M23.84,66.63a8.71,8.71,0,0,0,3.58-7.79,10.39,10.39,0,0,0-1.87-5.55c-3.44-.06-6.48,5.39-7.32,7.42-.5,1.21-1.19,3.26-.42,4.54A4.8,4.8,0,0,0,23.84,66.63Z"/></g></g></svg>