<svg id="Layer_1" data-name="Layer 1" xmlns="http://www.w3.org/2000/svg" viewBox="0 0 796.49 796.97"><defs><style>.cls-1{fill:#699;}</style></defs><title>episode-5</title><path class="cls-1" d="M665,8757.11v121.14a276,276,0,0,1,186.39,72l86.71-84.64C866.74,8798.36,771,8757.11,665,8757.11Z" transform="translate(-267.38 -8757.11)"/><path class="cls-1" d="M938.39,8865.79l-86.81,84.74c56,50.78,91.14,123.47,91.14,205.47h121.14C1063.87,9041,1015.59,8938.51,938.39,8865.79Z" transform="translate(-267.38 -8757.11)"/><path class="cls-1" d="M665,9432.94v121.14c117,0,221.36-50.11,294.28-129.87l-86.87-84.61C821.57,9396.82,748,9432.94,665,9432.94Z" transform="translate(-267.38 -8757.11)"/><path class="cls-1" d="M942.72,9156a276.73,276.73,0,0,1-70,183.81l86.77,84.71A397.45,397.45,0,0,0,1063.87,9156H942.72Z" transform="translate(-267.38 -8757.11)"/><path class="cls-1" d="M665,8757.11v121.14a276.3,276.3,0,0,0-185.77,72l-87-84.64A397.53,397.53,0,0,1,665,8757.11Z" transform="translate(-267.38 -8757.11)"/><path class="cls-1" d="M392.86,8865.79l86.81,84.74c-56,50.78-91.14,123.47-91.14,205.47H267.38C267.38,9041,315.65,8938.51,392.86,8865.79Z" transform="translate(-267.38 -8757.11)"/><path class="cls-1" d="M665,9432.94v121.14c-116,0-220.74-50.11-293.66-129.87l86.56-84.61A276.88,276.88,0,0,0,665,9432.94Z" transform="translate(-267.38 -8757.11)"/><path class="cls-1" d="M388.52,9156a276.73,276.73,0,0,0,70,183.81l-86.77,84.71A397.45,397.45,0,0,1,267.38,9156H388.52Z" transform="translate(-267.38 -8757.11)"/></svg>