<svg id="Layer_1" data-name="Layer 1" xmlns="http://www.w3.org/2000/svg" viewBox="0 0 876.32 835.08"><defs><style>.cls-1,.cls-4{opacity:0.75;}.cls-2,.cls-3,.cls-4{fill:#699;}.cls-3{opacity:0.63;}</style></defs><title>episode-3</title><g class="cls-1"><path class="cls-2" d="M1794,5107.11v121.14a276,276,0,0,1,186.39,72l86.71-84.64C1995.74,5148.36,1900,5107.11,1794,5107.11Z" transform="translate(-1500.34 -5069)"/><path class="cls-2" d="M2067.39,5215.79l-86.81,84.74c56,50.78,91.14,123.47,91.14,205.47h121.14C2192.87,5391,2144.59,5288.51,2067.39,5215.79Z" transform="translate(-1500.34 -5069)"/><path class="cls-2" d="M1794,5782.94v121.14c117,0,221.36-50.11,294.28-129.87l-86.87-84.61C1950.57,5746.82,1877,5782.94,1794,5782.94Z" transform="translate(-1500.34 -5069)"/><path class="cls-2" d="M2071.72,5506a276.73,276.73,0,0,1-70,183.81l86.77,84.71A397.45,397.45,0,0,0,2192.87,5506H2071.72Z" transform="translate(-1500.34 -5069)"/></g><path class="cls-3" d="M2002,5407.11v121.14a276.3,276.3,0,0,0-185.77,72l-87-84.64A397.53,397.53,0,0,1,2002,5407.11Z" transform="translate(-1500.34 -5069)"/><path class="cls-3" d="M2289.86,5544.79l86.81,84.74c-56,50.78-91.14,123.47-91.14,205.47H2164.38C2164.38,5720,2212.65,5617.51,2289.86,5544.79Z" transform="translate(-1500.34 -5069)"/><path class="cls-4" d="M1794,5782.94v121.14c-116,0-220.74-50.11-293.66-129.87l86.56-84.61A276.88,276.88,0,0,0,1794,5782.94Z" transform="translate(-1500.34 -5069)"/><path class="cls-3" d="M2218.52,5069a276.73,276.73,0,0,0,70,183.81l-86.77,84.71A397.45,397.45,0,0,1,2097.38,5069h121.14Z" transform="translate(-1500.34 -5069)"/></svg>