<svg xmlns="http://www.w3.org/2000/svg" viewBox="0 0 108.32 108.32"><defs><style>.cls-1{fill:#f2d657;}.cls-2{fill:#231f20;}.cls-3{fill:#ed247c;}.cls-4{fill:#e0184f;}</style></defs><title>Asset 2</title><g id="Layer_2" data-name="Layer 2"><g id="emojis"><circle class="cls-1" cx="54.16" cy="54.16" r="54.16"/></g><g id="faces"><path class="cls-2" d="M41.67,57.38A63.64,63.64,0,0,1,55.28,56a50.44,50.44,0,0,1,12.37,1.34s4.78,25.23-12,26.75S41.67,57.38,41.67,57.38Z"/><path class="cls-3" d="M45,75.46s.82-5.17,4.08-3.54,4.35,4.9,5.17,6,1.63,4.63,1.63,4.63l-.27,1.81a11.13,11.13,0,0,1-6.53-1c-3-1.63-4.35-5.44-4.35-5.44Z"/><path class="cls-4" d="M38.11,37.8s-3.89-6.08-8.67-2.4c-5.17,4,1.26,9.52,3.73,11.08,2.06,1.29,6.74,5.1,6.74,5.1s7.1-8.87,7.93-10.26c1.27-2.13,1.68-6.38-2.18-7.77-2.79-1-4.25.16-5.53,1.59A20.61,20.61,0,0,0,38.11,37.8Z"/><path class="cls-4" d="M71.31,37.66s-3-6.59-8.22-3.65c-5.7,3.18-.16,9.6,2.06,11.51,1.84,1.58,5.91,6,5.91,6s8.33-7.73,9.35-9c1.57-1.92,2.6-6.06-1-8-2.61-1.41-4.23-.47-5.71.76A20.61,20.61,0,0,0,71.31,37.66Z"/></g></g></svg>