<svg fill="#FEFEFE" xmlns="http://www.w3.org/2000/svg" xmlns:xlink="http://www.w3.org/1999/xlink" version="1.1" x="0px" y="0px" viewBox="0 0 50 50" style="enable-background:new 0 0 50 50;" xml:space="preserve"><g><path d="M44.8,20.4H33.5c2.2-3,3.4-6.7,3.4-10.4V5.9c0-2.7-2.1-4.9-4.8-4.9c-3.4,0-4.4,2.8-5.3,5.2c-1.2,3.3-3,8.2-8.8,11L14.3,19   v-0.2c0-1.1-0.9-2-2-2H6c-2.8,0-5,2.2-5,5v21.5c0,2.8,2.2,5,5,5h6.3c1.1,0,2-0.9,2-2v0l7.6,1.9c2.4,0.6,4.9,0.9,7.4,0.9h10.6   c2.3,0,4.2-1.9,4.2-4.3c0-1-0.3-1.9-0.9-2.6c1.6-0.6,2.7-2.2,2.7-4c0-1-0.3-1.9-0.9-2.6c1.6-0.6,2.7-2.2,2.7-4c0-1.1-0.4-2-1-2.8   c1.4-0.7,2.4-2.2,2.4-3.9C49,22.3,47.1,20.4,44.8,20.4z M6,46.2c-1.7,0-3-1.3-3-3V21.7c0-1.7,1.3-3,3-3h6.3c0,7.6,0,14.4,0,26.1   c0,0,0,0,0,0v1.3H6z M44.8,27c-0.1,0-6,0-5.9,0c-0.6,0-1,0.4-1,1s0.4,1,1,1h4.5c1.2,0,2.2,1,2.2,2.3s-1,2.3-2.2,2.3   c-0.7,0-6.5,0-6.3,0c-0.6,0-1,0.4-1,1s0.4,1,1,1c0.2,0,4.6,0,4.5,0c1.2,0,2.2,1,2.2,2.3s-1,2.3-2.2,2.3h-1.8c-0.4,0-4.7,0-4.5,0   c-0.6,0-1,0.4-1,1s0.4,1,1,1c0.2,0,4.6,0,4.5,0c1.2,0,2.2,1,2.2,2.3S41,47,39.8,47H29.2c-2.3,0-4.6-0.3-6.9-0.9l-8.1-2.1V21.2   l4.6-2.2c6.5-3.1,8.6-8.7,9.8-12.1C29.4,4.9,30,3,32.1,3c1.5,0,2.8,1.3,2.8,2.9V10c0,3.3-1.1,6.6-3,9.3l-1.1,1.5   c-0.2,0.2-0.2,0.5-0.1,0.9c0.1,0.5,0.6,0.7,0.9,0.7h13.3c1.2,0,2.2,1,2.2,2.3S46,27,44.8,27z"></path></g></svg>