<svg xmlns="http://www.w3.org/2000/svg" viewBox="0 0 108.32 108.32"><defs><style>.cls-1{fill:#f2d657;}.cls-2{fill:#231f20;}.cls-3{fill:#ed247c;}.cls-4{fill:none;stroke:#231f20;stroke-linecap:round;stroke-linejoin:round;stroke-width:4.83px;}</style></defs><title>Asset 3</title><g id="Layer_2" data-name="Layer 2"><g id="emojis"><circle class="cls-1" cx="54.16" cy="54.16" r="54.16"/></g><g id="faces"><path class="cls-2" d="M41,57.87a63.64,63.64,0,0,1,13.61-1.37A50.44,50.44,0,0,1,67,57.84s4.78,25.23-12,26.75S41,57.87,41,57.87Z"/><circle class="cls-2" cx="37.03" cy="42.05" r="7.98"/><path class="cls-3" d="M44.32,75.94s.82-5.17,4.08-3.54,4.35,4.9,5.17,6S55.21,83,55.21,83l-.27,1.81a11.13,11.13,0,0,1-6.53-1c-3-1.63-4.35-5.44-4.35-5.44Z"/><polyline class="cls-4" points="74.93 35.07 67.09 41.88 74.65 48.14"/></g></g></svg>